<svg width="22" height="28" viewBox="0 0 22 28" fill="none" xmlns="http://www.w3.org/2000/svg">
<path d="M18.9997 6.00033H16.333C16.333 3.05366 13.9463 0.666992 10.9997 0.666992C8.05301 0.666992 5.66634 3.05366 5.66634 6.00033H2.99967C1.53301 6.00033 0.333008 7.20033 0.333008 8.66699V24.667C0.333008 26.1337 1.53301 27.3337 2.99967 27.3337H18.9997C20.4663 27.3337 21.6663 26.1337 21.6663 24.667V8.66699C21.6663 7.20033 20.4663 6.00033 18.9997 6.00033ZM10.9997 3.33366C12.4663 3.33366 13.6663 4.53366 13.6663 6.00033H8.33301C8.33301 4.53366 9.53301 3.33366 10.9997 3.33366ZM18.9997 24.667H2.99967V8.66699H5.66634V11.3337C5.66634 12.067 6.26634 12.667 6.99967 12.667C7.73301 12.667 8.33301 12.067 8.33301 11.3337V8.66699H13.6663V11.3337C13.6663 12.067 14.2663 12.667 14.9997 12.667C15.733 12.667 16.333 12.067 16.333 11.3337V8.66699H18.9997V24.667Z" fill="#F28B30"/>
</svg>
