<?xml version="1.0" standalone="no"?>
<!DOCTYPE svg PUBLIC "-//W3C//DTD SVG 20010904//EN"
 "http://www.w3.org/TR/2001/REC-SVG-20010904/DTD/svg10.dtd">
<svg version="1.0" xmlns="http://www.w3.org/2000/svg"
 width="500.000000pt" height="500.000000pt" viewBox="0 0 500.000000 500.000000"
 preserveAspectRatio="xMidYMid meet">

<g transform="translate(0.000000,500.000000) scale(0.100000,-0.100000)"
fill="#000000" stroke="none">
<path d="M2440 3871 c-43 -14 -1003 -571 -1030 -597 -19 -19 -25 -35 -25 -69
0 -35 6 -50 25 -68 21 -20 893 -528 995 -580 46 -23 97 -30 141 -18 21 6 210
110 419 230 l380 220 3 -486 c1 -268 -1 -490 -5 -494 -24 -22 -761 -441 -794
-451 -72 -21 -114 -2 -504 223 -275 160 -370 220 -381 240 -11 23 -14 88 -14
331 0 167 -4 308 -8 315 -4 6 -70 49 -147 94 -139 81 -187 97 -206 68 -5 -8
-9 -236 -9 -514 0 -458 2 -502 18 -522 17 -22 1036 -618 1121 -656 32 -14 58
-18 97 -15 57 5 19 -16 819 446 245 142 364 216 372 233 18 35 18 1364 0 1396
-15 27 -328 213 -358 213 -11 0 -163 -82 -337 -183 -483 -280 -472 -274 -542
-262 -36 6 -332 167 -372 203 -10 8 -18 25 -18 37 0 12 8 29 18 37 39 35 316
189 357 199 56 14 115 1 184 -41 26 -17 53 -30 60 -30 24 0 311 173 316 191 4
11 4 27 0 38 -3 11 -95 70 -225 145 -191 111 -227 128 -273 131 -28 3 -63 1
-77 -4z"/>
</g>
</svg>
